<svg width="43" height="69" viewBox="0 0 43 69" fill="none" xmlns="http://www.w3.org/2000/svg">
<path d="M37.8348 60.34C39.3708 60.34 40.5228 60.692 41.2908 61.396C42.0588 62.1 42.4428 63.092 42.4428 64.372C42.4428 67.124 40.9068 68.5 37.8348 68.5H5.77075C2.63475 68.5 1.06675 67.124 1.06675 64.372C1.06675 63.092 1.45075 62.1 2.21875 61.396C3.05075 60.692 4.23475 60.34 5.77075 60.34H16.8108V12.436L6.92275 18.676C6.28275 19.06 5.64275 19.252 5.00275 19.252C3.91475 19.252 2.95475 18.772 2.12275 17.812C1.35475 16.852 0.97075 15.764 0.97075 14.548C0.97075 13.076 1.61075 11.924 2.89075 11.092L17.6748 1.684C19.1468 0.787996 20.5548 0.339996 21.8988 0.339996C23.3068 0.339996 24.4588 0.787996 25.3548 1.684C26.2508 2.58 26.6988 3.796 26.6988 5.332V60.34H37.8348Z" fill="#F9BDBD" fill-opacity="0.25"/>
</svg>
