<svg width="49" height="69" viewBox="0 0 49 69" fill="none" xmlns="http://www.w3.org/2000/svg">
<path d="M43.5068 60.84C45.0428 60.84 46.1948 61.192 46.9628 61.896C47.7948 62.6 48.2108 63.592 48.2108 64.872C48.2108 67.624 46.6428 69 43.5068 69H6.45075C5.04275 69 3.92275 68.616 3.09075 67.848C2.32275 67.016 1.93875 65.992 1.93875 64.776C1.93875 63.304 2.51475 61.96 3.66675 60.744L26.2268 36.072C29.2348 32.808 31.4108 29.832 32.7548 27.144C34.0988 24.456 34.7708 21.8 34.7708 19.176C34.7708 15.784 33.7788 13.192 31.7948 11.4C29.8748 9.544 27.1228 8.616 23.5388 8.616C18.0988 8.616 12.6908 10.696 7.31475 14.856C6.61075 15.304 6.00275 15.656 5.49075 15.912C5.04275 16.104 4.56275 16.2 4.05075 16.2C3.15475 16.2 2.38675 15.784 1.74675 14.952C1.10675 14.12 0.78675 13.128 0.78675 11.976C0.78675 10.376 1.42675 9.096 2.70675 8.136C5.39475 5.832 8.62675 4.008 12.4028 2.664C16.1788 1.25599 19.9868 0.551994 23.8268 0.551994C30.1628 0.551994 35.1868 2.18399 38.8988 5.44799C42.6748 8.64799 44.5627 13 44.5627 18.504C44.5627 22.408 43.6988 26.12 41.9708 29.64C40.3068 33.16 37.4908 37.096 33.5228 41.448L15.3788 60.84H43.5068Z" fill="#F9BDBD" fill-opacity="0.25"/>
</svg>
