<svg width="48" height="70" viewBox="0 0 48 70" fill="none" xmlns="http://www.w3.org/2000/svg">
<path d="M34.7148 33.748C38.8108 34.9 41.9148 36.884 44.0268 39.7C46.1388 42.452 47.1948 45.94 47.1948 50.164C47.1948 56.052 45.1148 60.692 40.9548 64.084C36.8588 67.476 31.2908 69.172 24.2508 69.172C20.0908 69.172 16.0908 68.5 12.2508 67.156C8.47475 65.812 5.27475 63.956 2.65075 61.588C1.37075 60.564 0.73075 59.284 0.73075 57.748C0.73075 56.596 1.05075 55.636 1.69075 54.868C2.33075 54.036 3.09875 53.62 3.99475 53.62C4.95475 53.62 6.04275 54.036 7.25875 54.868C10.0108 56.916 12.6988 58.484 15.3228 59.572C18.0108 60.596 20.8908 61.108 23.9628 61.108C33.0508 61.108 37.5948 57.236 37.5948 49.492C37.5948 45.716 36.3788 42.9 33.9468 41.044C31.5788 39.124 27.9628 38.164 23.0988 38.164H17.8188C16.6028 38.164 15.6428 37.78 14.9388 37.012C14.2348 36.18 13.8828 35.22 13.8828 34.132C13.8828 33.108 14.2348 32.212 14.9388 31.444C15.6428 30.612 16.6028 30.196 17.8188 30.196H21.5627C26.2348 30.196 29.7868 29.236 32.2188 27.316C34.7148 25.332 35.9628 22.452 35.9628 18.676C35.9628 15.348 34.9388 12.756 32.8908 10.9C30.9068 9.044 28.0908 8.116 24.4427 8.116C19.0668 8.116 13.6908 10.196 8.31475 14.356C7.09875 15.188 6.01075 15.604 5.05075 15.604C4.15475 15.604 3.38675 15.22 2.74675 14.452C2.10675 13.62 1.78675 12.628 1.78675 11.476C1.78675 9.94 2.42675 8.66 3.70675 7.636C6.33075 5.268 9.49875 3.412 13.2108 2.068C16.9868 0.723995 20.8588 0.0519943 24.8268 0.0519943C31.1628 0.0519943 36.1868 1.62 39.8988 4.756C43.6748 7.892 45.5627 12.148 45.5627 17.524C45.5627 21.364 44.6028 24.724 42.6828 27.604C40.8268 30.42 38.1708 32.468 34.7148 33.748Z" fill="#F9BDBD" fill-opacity="0.25"/>
</svg>
