<svg width="53" height="69" viewBox="0 0 53 69" fill="none" xmlns="http://www.w3.org/2000/svg">
<path d="M48.0028 46.612C51.1388 46.612 52.7068 47.924 52.7068 50.548C52.7068 53.172 51.1388 54.484 48.0028 54.484H41.8588V63.988C41.8588 65.588 41.4108 66.836 40.5148 67.732C39.6188 68.564 38.4348 68.98 36.9628 68.98C35.5548 68.98 34.4028 68.564 33.5068 67.732C32.6108 66.836 32.1628 65.588 32.1628 63.988V54.484H5.18675C3.77875 54.484 2.69075 54.1 1.92275 53.332C1.15475 52.564 0.77075 51.572 0.77075 50.356C0.77075 49.076 1.18675 47.828 2.01875 46.612L32.6428 2.548C33.6668 1.076 35.1068 0.339996 36.9628 0.339996C38.3068 0.339996 39.4588 0.787996 40.4188 1.684C41.3788 2.516 41.8588 3.732 41.8588 5.332V46.612H48.0028ZM32.1628 46.612V16.66L11.4268 46.612H32.1628Z" fill="#F9BDBD" fill-opacity="0.25"/>
</svg>
